<?xml version="1.0" standalone="no"?>
<!DOCTYPE svg PUBLIC "-//W3C//DTD SVG 20010904//EN"
 "http://www.w3.org/TR/2001/REC-SVG-20010904/DTD/svg10.dtd">
<svg version="1.0" xmlns="http://www.w3.org/2000/svg"
 width="500.000000pt" height="500.000000pt" viewBox="0 0 500.000000 500.000000"
 preserveAspectRatio="xMidYMid meet">

<g transform="translate(0.000000,500.000000) scale(0.100000,-0.100000)"
fill="#000000" stroke="none">
<path d="M716 4569 c-69 -16 -174 -79 -223 -133 -54 -60 -97 -148 -112 -231
-8 -40 -11 -405 -11 -1157 l0 -1098 40 -20 c59 -30 94 -26 172 21 78 47 123
97 140 152 23 76 77 73 114 -7 42 -91 163 -186 239 -186 23 0 50 7 61 15 28
21 51 18 69 -9 13 -19 14 -29 5 -45 -10 -19 -8 -20 20 -15 18 4 48 0 75 -11
65 -24 95 -78 95 -171 0 -75 -10 -94 -47 -94 -30 0 -43 28 -43 94 0 47 -4 57
-26 75 -19 15 -41 21 -75 21 -57 0 -203 52 -286 102 -30 18 -76 56 -102 84
l-46 50 -30 -37 c-17 -21 -53 -54 -80 -74 -54 -37 -207 -108 -262 -120 l-33
-7 0 -482 c0 -306 4 -504 11 -541 32 -174 162 -329 322 -385 54 -19 101 -20
1844 -20 1729 -1 1790 0 1849 18 130 41 253 152 299 271 14 38 30 98 36 133 6
40 9 693 7 1763 l-3 1700 -27 69 c-50 124 -118 194 -245 254 l-58 27 -1825 2
c-1076 0 -1841 -3 -1864 -8z m1960 -119 c98 -31 154 -37 198 -20 25 9 26 8 26
-26 0 -81 -51 -124 -147 -124 -59 0 -72 6 -169 71 -115 77 -221 67 -374 -35
-49 -32 -61 -36 -121 -36 -52 0 -72 4 -93 21 -34 27 -56 70 -56 110 0 26 3 30
18 23 44 -20 119 -16 198 12 101 35 171 44 312 39 91 -4 131 -10 208 -35z
m-1576 -55 c0 -84 -6 -99 -30 -70 -20 24 -122 57 -180 58 -87 2 -145 -19 -200
-73 -34 -33 -53 -62 -63 -95 -14 -48 -14 -49 -78 -66 -35 -10 -68 -18 -72 -19
-17 0 6 98 39 167 39 82 93 133 171 163 41 16 76 19 231 20 l182 0 0 -85z
m460 25 l0 -60 -74 0 c-56 0 -75 4 -80 15 -6 16 -53 20 -72 7 -6 -4 -16 -17
-23 -30 -24 -46 39 -99 87 -73 12 6 52 11 91 11 l71 0 0 -160 0 -160 -70 0
c-47 0 -79 5 -94 15 -51 34 -115 -30 -81 -81 20 -32 61 -41 84 -20 13 12 37
16 89 16 l72 0 0 -60 0 -60 -116 0 c-134 0 -171 12 -210 69 -31 46 -32 109 -2
162 36 64 125 92 211 66 l47 -15 1 44 c3 98 4 94 -33 83 -51 -14 -119 -10
-164 10 -97 44 -114 174 -32 247 34 31 41 32 176 33 l122 1 0 -60z m1518 -113
l2 -168 -37 3 -38 3 -3 155 c-1 85 0 160 3 168 3 8 17 12 37 10 l33 -3 3 -168z
m1383 141 c58 -34 125 -107 152 -166 20 -43 22 -67 25 -274 2 -126 0 -228 -5
-228 -290 -7 -581 -6 -590 2 -10 8 -13 90 -13 348 0 185 3 340 8 344 4 4 90 6
192 4 180 -3 186 -4 231 -30z m-3384 -282 c-7 -69 -28 -108 -88 -167 -115
-112 -297 -106 -404 13 -51 57 -50 61 27 71 40 6 53 3 84 -18 45 -31 100 -33
154 -5 30 15 45 33 67 79 l28 59 60 10 c33 5 64 10 69 11 5 0 6 -23 3 -53z
m1031 -10 c28 -14 67 -39 85 -56 48 -42 132 -78 199 -86 84 -10 148 10 242 74
140 95 234 126 266 87 21 -25 -3 -65 -37 -65 -23 0 -153 -53 -153 -62 0 -2 28
-3 63 -4 73 0 124 -23 133 -59 9 -37 -2 -46 -41 -29 -46 19 -95 17 -184 -6
-109 -29 -405 -29 -506 0 -38 11 -86 20 -106 20 -28 0 -40 6 -58 30 -20 28
-21 31 -4 37 10 4 44 7 75 7 32 1 58 2 58 3 0 10 -113 56 -149 62 -38 5 -47
10 -49 29 -7 47 4 55 62 49 29 -3 76 -17 104 -31z m1822 -205 l0 -169 -247 -6
c-291 -7 -483 -4 -500 7 -10 6 -13 52 -13 173 l0 164 380 0 380 0 0 -169z
m-3295 -61 c65 -33 76 -35 165 -35 88 1 99 3 158 34 34 19 80 53 102 77 l40
44 0 -115 c0 -112 0 -115 -24 -121 -17 -4 -572 1 -593 5 -2 1 -3 57 -3 126 l0
126 43 -53 c30 -39 61 -63 112 -88z m2445 80 c0 -65 -44 -136 -102 -166 -35
-18 -38 -18 -38 4 0 10 -7 27 -15 38 -20 26 -19 29 10 42 30 14 65 68 65 100
0 19 5 22 40 22 l40 0 0 -40z m-1760 -295 c0 -17 -14 -39 -40 -64 -37 -35 -40
-42 -40 -93 0 -30 -6 -61 -12 -70 -15 -18 -59 -48 -70 -48 -5 0 -8 36 -8 80 0
106 18 150 78 190 58 38 92 40 92 5z m2540 3 c54 -37 72 -69 77 -142 3 -36 2
-66 -3 -66 -19 0 -84 75 -84 98 0 12 -11 33 -25 46 -16 15 -25 34 -25 55 0 37
14 40 60 9z m-2060 -12 c0 -8 -11 -28 -24 -43 -23 -27 -29 -28 -125 -31 l-101
-4 0 40 c0 49 -2 48 143 51 89 2 107 -1 107 -13z m2460 -14 c14 -10 34 -37 45
-60 11 -23 22 -41 25 -42 3 0 14 19 25 43 37 77 144 110 179 55 14 -23 -3 -53
-30 -54 -39 -1 -63 -16 -78 -48 -9 -19 -16 -41 -16 -50 0 -13 -5 -14 -26 -6
-32 13 -80 13 -103 0 -15 -8 -20 -3 -30 30 -13 45 -52 80 -81 73 -24 -6 -50
13 -50 38 0 48 85 61 140 21z m-3425 -7 c52 -51 15 -135 -59 -135 -69 0 -104
97 -50 139 36 28 79 27 109 -4z m2801 0 c23 -13 101 -87 173 -162 125 -132
131 -140 131 -180 0 -63 -22 -56 -114 36 l-78 78 -36 -32 c-27 -25 -37 -44
-41 -77 -5 -34 -10 -44 -28 -46 -25 -4 -53 31 -53 66 0 31 26 80 63 119 l30
32 -29 34 c-58 68 -80 77 -186 77 -82 0 -100 3 -129 23 -19 12 -35 30 -37 40
-3 15 10 17 144 17 139 0 150 -1 190 -25z m-2172 -97 l0 -48 57 0 c65 0 75 -7
53 -38 -53 -75 -236 -74 -296 1 -24 30 -14 37 50 37 l58 0 -4 39 c-3 25 3 52
18 81 l22 43 21 -34 c15 -23 22 -49 21 -81z m1197 102 c373 -38 732 -296 913
-657 97 -194 129 -457 86 -705 -23 -131 -43 -194 -93 -295 -174 -345 -500
-591 -852 -644 -164 -24 -401 -7 -535 39 -144 50 -337 171 -436 274 -97 100
-147 167 -207 280 -239 446 -182 957 149 1323 98 108 126 131 244 209 229 150
451 204 731 176z m1486 -146 c12 -19 12 -24 -1 -37 -9 -8 -21 -18 -28 -20 -18
-8 37 -57 63 -57 14 0 19 -7 19 -30 0 -28 -2 -30 -40 -30 -56 0 -99 24 -116
67 -19 45 -10 87 24 113 31 25 60 23 79 -6z m456 6 c75 -59 11 -180 -95 -180
-35 0 -38 2 -38 29 0 25 6 31 34 41 43 14 54 38 26 57 -25 17 -26 49 -2 62 26
16 47 13 75 -9z m-3237 -168 c48 -40 54 -94 13 -107 -14 -5 -27 0 -40 14 -25
27 -51 27 -75 0 -18 -19 -19 -41 -21 -278 0 -141 1 -288 4 -328 5 -65 7 -72
29 -77 33 -9 57 -47 48 -80 -15 -61 -96 -76 -145 -27 l-29 29 0 379 c0 422 0
423 70 471 41 28 115 30 146 4z m2523 -120 c30 -28 41 -47 46 -82 3 -25 5
-182 3 -348 l-3 -304 -33 -29 c-59 -53 -145 -29 -145 41 0 36 31 70 63 70 10
0 21 7 24 16 11 28 7 544 -4 565 -12 21 -41 25 -71 8 -31 -16 -59 -2 -59 31 0
40 41 70 96 70 36 0 49 -6 83 -38z m-3051 -38 c47 -53 10 -134 -62 -134 -64 0
-100 85 -58 136 33 41 82 40 120 -2z m3316 -340 c39 -18 69 -24 122 -24 80 0
125 13 236 71 43 21 89 44 103 49 l25 10 0 -73 0 -73 -47 -17 c-27 -10 -108
-52 -182 -94 -151 -86 -252 -128 -329 -139 l-52 -7 0 204 0 204 37 -44 c21
-25 59 -54 87 -67z m-3080 -175 c3 -17 6 -76 6 -130 0 -94 -1 -99 -22 -104
-13 -3 -147 -4 -298 -3 l-275 3 -3 133 -3 132 294 0 295 0 6 -31z m3564 -246
l-3 -178 -300 0 -300 0 -3 50 -3 50 83 23 c78 21 213 84 331 154 62 37 155 77
180 78 16 0 17 -13 15 -177z m-3557 -114 c8 -16 8 -28 0 -45 l-11 -24 -292 2
-293 3 -9 27 c-20 57 -13 58 305 58 284 0 288 0 300 -21z m2847 -85 c10 -29
12 -107 10 -309 -3 -310 -7 -328 -81 -364 l-42 -21 -3 30 c-2 18 5 44 17 64
20 32 21 47 21 356 l0 322 33 -19 c21 -13 36 -32 45 -59z m426 -106 c11 -17
20 -51 20 -75 1 -36 4 -42 19 -38 9 3 26 7 36 10 29 8 99 -24 121 -55 11 -16
23 -42 26 -59 6 -30 5 -31 -28 -31 -26 0 -39 7 -56 30 -25 33 -55 38 -89 15
-19 -14 -21 -13 -27 9 -10 42 -78 46 -91 6 -5 -16 -10 -17 -30 -8 -33 15 -74
2 -87 -27 -9 -19 -19 -25 -45 -25 -27 0 -33 4 -33 20 0 30 26 75 56 99 31 24
121 29 143 9 10 -11 10 -8 2 14 -10 27 -5 59 19 111 17 34 22 34 44 -5z m-574
-321 c0 -119 -21 -176 -78 -213 -35 -24 -118 -40 -151 -29 -48 15 -14 74 47
82 58 8 92 48 92 108 0 24 5 56 11 72 11 29 57 83 71 83 4 0 8 -46 8 -103z
m410 50 c34 -17 70 -74 70 -109 0 -37 -28 -98 -45 -98 -7 0 -15 9 -18 20 -7
26 -33 36 -52 20 -19 -16 -19 -80 0 -127 8 -20 13 -38 11 -41 -3 -2 -25 7 -49
22 -61 35 -77 78 -77 205 0 92 1 99 23 109 30 15 107 14 137 -1z m435 -7 c26
-22 18 -217 -11 -257 -19 -26 -103 -78 -112 -69 -2 2 4 19 13 36 17 34 24 108
11 128 -14 24 -46 13 -59 -20 l-14 -33 -22 35 c-17 27 -21 46 -18 84 4 42 10
55 42 84 35 32 40 34 95 30 32 -2 66 -10 75 -18z m-270 -100 c10 -23 18 -53
18 -68 0 -27 -28 -82 -42 -82 -14 0 -41 59 -41 89 0 31 28 101 40 101 4 0 15
-18 25 -40z m-3717 -7 c60 -37 78 -122 42 -193 -11 -22 -20 -47 -20 -56 0 -16
55 -74 70 -74 4 0 9 30 12 68 2 41 10 76 20 91 l17 25 20 -45 c12 -24 21 -65
21 -91 0 -27 2 -48 5 -48 17 0 55 35 65 60 10 25 9 34 -9 63 -14 23 -21 51
-21 85 0 43 5 57 31 86 55 64 154 66 188 4 14 -24 14 -28 -3 -47 -20 -22 -51
-28 -61 -11 -9 14 -48 13 -63 -2 -17 -17 -15 -48 8 -93 11 -22 20 -50 20 -62
0 -39 -25 -87 -61 -117 l-34 -29 58 5 c46 4 63 10 87 33 16 16 32 27 34 24 2
-2 1 -19 -1 -37 -15 -94 -153 -140 -224 -76 -18 16 -19 15 -19 -27 0 -48 -7
-62 -32 -72 -33 -12 -52 16 -49 74 l2 54 -24 -23 c-74 -70 -191 -37 -218 63
-13 45 -4 58 19 28 22 -28 62 -43 115 -43 l42 0 -37 25 c-24 16 -42 40 -54 70
-17 45 -17 47 4 98 25 59 27 88 10 105 -15 15 -50 16 -65 1 -15 -15 -51 -2
-58 21 -21 67 90 110 163 63z m941 -208 c17 -20 31 -44 31 -53 0 -33 30 -62
71 -68 29 -5 44 -13 51 -30 18 -40 4 -54 -54 -54 -66 0 -114 27 -134 75 -15
37 -20 165 -5 165 5 0 23 -16 40 -35z m2791 -205 l0 -190 -22 0 c-13 0 -28 4
-35 8 -13 8 -30 328 -20 356 4 10 19 16 42 16 l35 0 0 -190z m-360 105 l0 -55
-197 0 c-183 0 -204 2 -291 27 -51 14 -89 29 -85 33 4 5 44 17 88 28 67 18
113 21 283 21 l202 1 0 -55z m-2536 -104 l38 -39 207 -4 208 -3 58 -30 c70
-37 121 -100 111 -139 -9 -38 -56 -36 -79 3 -9 16 -37 39 -60 50 -39 19 -61
21 -223 21 -98 0 -197 5 -218 11 -23 6 -61 31 -93 62 l-54 50 28 29 c15 15 29
28 33 28 3 0 23 -17 44 -39z m1826 -6 l0 -25 346 -2 347 -3 -29 -34 c-49 -59
-63 -61 -379 -61 -282 0 -285 0 -285 -21 0 -30 -44 -22 -48 9 -2 14 -17 29
-43 42 -21 11 -39 24 -39 29 0 4 18 16 40 26 24 11 40 25 40 35 0 22 9 30 32
30 13 0 18 -7 18 -25z m-219 -169 c6 -22 8 -52 5 -67 -4 -22 0 -32 22 -48 l27
-21 -27 -23 -28 -23 0 -267 0 -268 -37 3 -38 3 -3 271 -2 271 -25 13 c-31 17
-31 23 0 40 21 11 25 21 25 59 0 25 10 66 21 91 19 43 21 44 35 25 8 -11 19
-37 25 -59z m-2469 -45 c42 -11 99 -31 127 -46 48 -24 51 -27 51 -65 l0 -40
141 0 c77 0 149 -5 160 -10 33 -18 24 -62 -27 -124 l-46 -56 25 -30 c32 -37
63 -119 78 -204 15 -89 10 -98 -48 -94 l-47 3 -12 72 c-12 74 -59 206 -78 222
-7 6 -30 -8 -63 -39 l-53 -49 27 -53 c15 -29 29 -76 31 -105 l4 -53 -50 0
c-49 0 -50 0 -57 37 -11 59 -70 164 -117 210 -23 23 -73 56 -110 73 l-68 32 0
50 0 51 32 -7 c48 -10 128 -49 179 -88 l47 -36 51 52 51 52 -51 38 c-78 58
-223 116 -291 116 -15 0 -18 9 -18 55 0 54 1 55 28 55 16 0 63 -9 104 -19z
m701 -7 c3 -4 0 -19 -8 -35 -25 -46 -19 -96 13 -129 60 -59 135 -45 217 40 64
67 107 85 200 85 95 0 132 -17 212 -93 63 -61 110 -79 163 -63 54 16 74 43 74
101 0 26 -6 56 -14 65 -9 11 -10 19 -3 26 19 19 69 -16 87 -61 20 -52 20 -75
-3 -125 -36 -80 -120 -123 -210 -110 -61 9 -95 28 -156 86 -112 106 -193 104
-305 -6 -87 -85 -173 -105 -266 -61 -86 40 -123 110 -102 193 14 58 76 111
101 87z m2184 -49 c87 -26 135 -107 109 -183 -27 -79 -135 -109 -179 -50 -17
23 -19 32 -9 52 9 21 17 25 49 23 30 -2 38 2 41 17 6 26 -24 46 -67 46 -45 0
-78 -17 -105 -53 -19 -26 -21 -45 -26 -245 l-5 -217 -50 0 -50 0 -3 194 c-2
153 1 206 13 248 25 84 96 153 180 174 44 10 47 10 102 -6z m-840 -86 c16 -30
22 -57 21 -85 l-3 -42 60 -5 c59 -6 147 -36 159 -55 17 -27 -74 -62 -164 -62
l-55 0 3 -47 c3 -55 -31 -136 -60 -141 -26 -5 -62 72 -62 136 l0 52 -66 1
c-72 0 -155 26 -155 49 0 26 88 62 159 63 l66 2 0 47 c0 52 13 94 37 121 22
24 33 18 60 -34z m-982 -98 c7 -23 57 -45 83 -37 10 4 24 18 30 31 19 40 72
27 72 -18 0 -58 -81 -115 -147 -102 -66 12 -117 80 -93 125 14 25 47 26 55 1z
m-330 -232 c24 -21 39 -46 47 -76 7 -31 24 -58 51 -84 l41 -39 -70 0 c-41 0
-75 5 -82 12 -7 7 -12 32 -12 56 0 60 -41 102 -99 102 -29 0 -41 4 -41 14 0
24 42 46 87 46 33 0 50 -7 78 -31z m907 14 c30 -27 22 -43 -22 -43 -61 0 -90
-33 -90 -103 0 -41 -4 -56 -16 -61 -21 -8 -144 -8 -144 1 0 3 18 21 40 40 22
19 40 43 40 54 0 30 26 74 60 103 37 31 103 36 132 9z"/>
<path d="M4297 4280 c-97 -17 -152 -147 -97 -234 29 -48 98 -80 154 -72 57 9
112 55 126 106 33 122 -57 221 -183 200z"/>
<path d="M2354 3280 c-106 -24 -217 -71 -292 -123 -88 -61 -205 -195 -246
-281 -45 -94 -56 -160 -56 -333 0 -79 -5 -164 -11 -188 -20 -80 -86 -123 -174
-113 -38 4 -41 -1 -24 -35 66 -128 238 -148 341 -40 56 58 61 87 67 358 l6
250 31 65 c40 83 98 148 177 197 123 77 213 103 362 103 138 0 230 -24 337
-86 123 -72 209 -183 237 -305 6 -24 11 -139 11 -256 0 -222 3 -242 47 -306
72 -104 230 -121 314 -34 21 22 59 77 59 87 0 3 -26 4 -57 2 -48 -3 -64 1 -92
20 -62 42 -71 73 -71 249 0 188 -17 266 -86 399 -74 145 -222 270 -391 332
-157 59 -337 72 -489 38z"/>
<path d="M2170 2290 l0 -570 110 0 110 0 0 570 0 570 -110 0 -110 0 0 -570z"/>
<path d="M2620 2839 c-55 -25 -96 -62 -121 -111 -27 -52 -24 -61 14 -38 50 31
119 27 159 -9 l33 -29 3 -120 c4 -135 -6 -170 -58 -197 -33 -17 -102 -20 -131
-5 -32 18 -23 -6 21 -54 58 -63 98 -80 180 -74 89 7 151 47 186 122 22 47 24
63 24 216 0 164 0 165 -29 215 -54 94 -178 131 -281 84z"/>
<path d="M2710 1987 c0 -79 -102 -207 -165 -207 -44 0 -36 -18 20 -46 44 -21
71 -27 123 -27 138 -1 230 78 261 221 21 98 28 92 -114 92 l-125 0 0 -33z"/>
<path d="M2592 819 c-12 -5 -27 -20 -32 -35 -21 -55 44 -103 95 -70 59 39 4
130 -63 105z"/>
</g>
`</svg>
